/* XPM */
static char * C:\Users\q432980\Desktop\astrav8_xpm[] = {
"100 41 392 2",
"  	c None",
". 	c #810000",
"+ 	c #800000",
"@ 	c #CF0000",
"# 	c #8D0000",
"$ 	c #900000",
"% 	c #C80000",
"& 	c #FF0000",
"* 	c #C50000",
"= 	c #F40000",
"- 	c #EB0000",
"; 	c #C00000",
"> 	c #E80000",
", 	c #F60000",
"' 	c #C40000",
") 	c #B80000",
"! 	c #000000",
"~ 	c #400000",
"{ 	c #410000",
"] 	c #6F0000",
"^ 	c #590000",
"/ 	c #650000",
"( 	c #3E0000",
"_ 	c #4C0000",
": 	c #390000",
"< 	c #190000",
"[ 	c #170000",
"} 	c #0C0000",
"| 	c #1B0000",
"1 	c #0F0000",
"2 	c #120000",
"3 	c #0E0000",
"4 	c #070000",
"5 	c #010000",
"6 	c #060000",
"7 	c #020000",
"8 	c #030000",
"9 	c #470000",
"0 	c #0A0000",
"a 	c #9C0000",
"b 	c #B00000",
"c 	c #BB0000",
"d 	c #D90000",
"e 	c #D50000",
"f 	c #CA0000",
"g 	c #FC0000",
"h 	c #FA0000",
"i 	c #290000",
"j 	c #E30000",
"k 	c #AF0000",
"l 	c #A10000",
"m 	c #510000",
"n 	c #450000",
"o 	c #D10000",
"p 	c #ED0000",
"q 	c #C20000",
"r 	c #B70000",
"s 	c #C60000",
"t 	c #710000",
"u 	c #630000",
"v 	c #AC0000",
"w 	c #950000",
"x 	c #890000",
"y 	c #180000",
"z 	c #2D0000",
"A 	c #830000",
"B 	c #520000",
"C 	c #4D0000",
"D 	c #7B0000",
"E 	c #3A0000",
"F 	c #620000",
"G 	c #340000",
"H 	c #330000",
"I 	c #1E0000",
"J 	c #310000",
"K 	c #220000",
"L 	c #670000",
"M 	c #3F0000",
"N 	c #960000",
"O 	c #680000",
"P 	c #780000",
"Q 	c #300000",
"R 	c #5C0000",
"S 	c #BA0000",
"T 	c #4F0000",
"U 	c #3D0000",
"V 	c #430000",
"W 	c #160000",
"X 	c #150000",
"Y 	c #770000",
"Z 	c #F80000",
"` 	c #F90000",
" .	c #FD0000",
"..	c #AD0000",
"+.	c #580000",
"@.	c #E50000",
"#.	c #CE0000",
"$.	c #CC0000",
"%.	c #F70000",
"&.	c #EE0000",
"*.	c #E20000",
"=.	c #EF0000",
"-.	c #FB0000",
";.	c #F10000",
">.	c #FE0000",
",.	c #F20000",
"'.	c #D00000",
").	c #DF0000",
"!.	c #DC0000",
"~.	c #DD0000",
"{.	c #DE0000",
"].	c #E00000",
"^.	c #610000",
"/.	c #BF0000",
"(.	c #940000",
"_.	c #A70000",
":.	c #C30000",
"<.	c #A50000",
"[.	c #110000",
"}.	c #6C0000",
"|.	c #D20000",
"1.	c #A80000",
"2.	c #B40000",
"3.	c #350000",
"4.	c #B50000",
"5.	c #870000",
"6.	c #8A0000",
"7.	c #720000",
"8.	c #380000",
"9.	c #2F0000",
"0.	c #140000",
"a.	c #050000",
"b.	c #210000",
"c.	c #750000",
"d.	c #AE0000",
"e.	c #A60000",
"f.	c #9A0000",
"g.	c #E70000",
"h.	c #D70000",
"i.	c #F50000",
"j.	c #E90000",
"k.	c #9F0000",
"l.	c #980000",
"m.	c #A90000",
"n.	c #BC0000",
"o.	c #540000",
"p.	c #150707",
"q.	c #363636",
"r.	c #4E4E4E",
"s.	c #6C6C6C",
"t.	c #989898",
"u.	c #979797",
"v.	c #5D5D5D",
"w.	c #1E1E1E",
"x.	c #8B8B8B",
"y.	c #757575",
"z.	c #4E4C4C",
"A.	c #290202",
"B.	c #850000",
"C.	c #F00000",
"D.	c #F30000",
"E.	c #B20000",
"F.	c #880000",
"G.	c #B90000",
"H.	c #5B0000",
"I.	c #CD0000",
"J.	c #D60000",
"K.	c #CB0000",
"L.	c #E40000",
"M.	c #E60000",
"N.	c #EC0000",
"O.	c #860000",
"P.	c #920000",
"Q.	c #740000",
"R.	c #8E0000",
"S.	c #DB0000",
"T.	c #9D0000",
"U.	c #DA0000",
"V.	c #5D0000",
"W.	c #1B1010",
"X.	c #464343",
"Y.	c #646464",
"Z.	c #908F8F",
"`.	c #919191",
" +	c #939393",
".+	c #979696",
"++	c #959595",
"@+	c #929292",
"#+	c #8F8F8F",
"$+	c #818181",
"%+	c #4F4D4D",
"&+	c #2A2121",
"*+	c #A40000",
"=+	c #790000",
"-+	c #A30000",
";+	c #2C0202",
">+	c #B31919",
",+	c #0B0000",
"'+	c #9E0000",
")+	c #D40000",
"!+	c #530000",
"~+	c #A00000",
"{+	c #C10000",
"]+	c #820000",
"^+	c #E10000",
"/+	c #550000",
"(+	c #1C0606",
"_+	c #070707",
":+	c #2C2C2C",
"<+	c #222222",
"[+	c #4D4D4D",
"}+	c #4B4B4B",
"|+	c #3C3C3C",
"1+	c #2E2E2E",
"2+	c #2F2F2F",
"3+	c #101010",
"4+	c #040404",
"5+	c #2D0202",
"6+	c #B60000",
"7+	c #969696",
"8+	c #151010",
"9+	c #570000",
"0+	c #B30000",
"a+	c #C90000",
"b+	c #2A2A2A",
"c+	c #2B0000",
"d+	c #1C0000",
"e+	c #4B0000",
"f+	c #B10000",
"g+	c #910000",
"h+	c #7F0000",
"i+	c #4A0000",
"j+	c #9B7D7D",
"k+	c #EA0000",
"l+	c #360000",
"m+	c #232020",
"n+	c #2B2222",
"o+	c #090909",
"p+	c #060606",
"q+	c #130000",
"r+	c #700000",
"s+	c #8F0000",
"t+	c #840000",
"u+	c #7D0000",
"v+	c #8A1F1F",
"w+	c #242424",
"x+	c #990000",
"y+	c #C40404",
"z+	c #4A4A4A",
"A+	c #270000",
"B+	c #100000",
"C+	c #676767",
"D+	c #888888",
"E+	c #BE0000",
"F+	c #808080",
"G+	c #989595",
"H+	c #8E8E8E",
"I+	c #8C0000",
"J+	c #A28989",
"K+	c #010101",
"L+	c #856666",
"M+	c #2D2D2D",
"N+	c #BD0000",
"O+	c #9B0000",
"P+	c #1B1B1B",
"Q+	c #878787",
"R+	c #966161",
"S+	c #555555",
"T+	c #280000",
"U+	c #404040",
"V+	c #7D7D7D",
"W+	c #2C0000",
"X+	c #783B3B",
"Y+	c #7F4242",
"Z+	c #260000",
"`+	c #370000",
" @	c #575757",
".@	c #7E7E7E",
"+@	c #440000",
"@@	c #4E3A3A",
"#@	c #686565",
"$@	c #666666",
"%@	c #4D2828",
"&@	c #2E0000",
"*@	c #656565",
"=@	c #AF3E3E",
"-@	c #6F6767",
";@	c #A78080",
">@	c #3F3C3C",
",@	c #948E8E",
"'@	c #5A0000",
")@	c #7E0000",
"!@	c #230000",
"~@	c #B76262",
"{@	c #6E5C5C",
"]@	c #7A6767",
"^@	c #5A5A5A",
"/@	c #460000",
"(@	c #660000",
"_@	c #420000",
":@	c #494949",
"<@	c #9A7E7E",
"[@	c #6D6666",
"}@	c #080000",
"|@	c #3D3D3D",
"1@	c #776868",
"2@	c #5B5B5B",
"3@	c #0D0000",
"4@	c #1A1A1A",
"5@	c #7B7A7A",
"6@	c #7A0000",
"7@	c #480000",
"8@	c #AB7979",
"9@	c #595959",
"0@	c #7C0000",
"a@	c #A87979",
"b@	c #250000",
"c@	c #8D8D8D",
"d@	c #1D1D1D",
"e@	c #D30000",
"f@	c #7A7A7A",
"g@	c #909090",
"h@	c #1F1F1F",
"i@	c #BE0202",
"j@	c #989797",
"k@	c #1F0000",
"l@	c #600000",
"m@	c #D80000",
"n@	c #807E7E",
"o@	c #615E5E",
"p@	c #434343",
"q@	c #372F2F",
"r@	c #171717",
"s@	c #161616",
"t@	c #111111",
"u@	c #0D0D0D",
"v@	c #A20000",
"w@	c #660505",
"x@	c #3B0000",
"y@	c #2B2B2B",
"z@	c #290A0A",
"A@	c #730000",
"B@	c #6E0000",
"C@	c #6B0000",
"D@	c #6A0000",
"E@	c #930000",
"F@	c #510101",
"G@	c #705151",
"H@	c #848484",
"I@	c #AB0000",
"J@	c #C70000",
"K@	c #720303",
"L@	c #722929",
"M@	c #906262",
"N@	c #323232",
"O@	c #030303",
"P@	c #3A0404",
"Q@	c #5A4646",
"R@	c #7A6E6E",
"S@	c #7F6969",
"T@	c #3C0000",
"U@	c #690000",
"V@	c #4D2D2D",
"W@	c #4B4545",
"X@	c #727272",
"Y@	c #777777",
"Z@	c #500000",
"`@	c #560000",
" #	c #510404",
".#	c #410505",
"+#	c #260505",
"@#	c #280505",
"##	c #270404",
"$#	c #220505",
"%#	c #090505",
"&#	c #050505",
"*#	c #0F0F0F",
"=#	c #220F0F",
"-#	c #170F0F",
";#	c #121212",
">#	c #141414",
",#	c #5F0000",
"'#	c #1A0000",
")#	c #640000",
"!#	c #AA0000",
"~#	c #8B0000",
"{#	c #6D0000",
"]#	c #2A0000",
"^#	c #760000",
"/#	c #970000",
"(#	c #5E0000",
"_#	c #490000",
"                                                .                                                                               + @                                                                     ",
"                    # $ % & & * & = - & ; & > , & ' & & & & & & & & & ) ! ! ! ! ~ { ] ^ / ( _ _ : < [ } | 1 } 2 3 4 5 6 7 ! 8 ! 9 & & 0 ! ! ! a & b c & d & e f g & & & # & & h i & j k l m n           ",
"                o & & & p & & q & r s s t * u v & w ) e s . x y z n v A B C D E F ^ G H I ~ J K L M N O M P A Q R ! I M G R & g f & S o g T U V M W X Y * & % ; Z & & ` - & & , m & & &  . ...+.        ",
"                @.#.@ ..; $.%.&.*.> =.*.*.*.&.-.;.h -.>.,.Z Z -.& & & & & & & & & & & & & & & & '.).!.p ).~.~.).{.].).{.].^...e @ . & #.~.O /.7 2 ! H (.% _.P P ` & & %.t f :.<.[.}.|.1.& & q 2.        ",
"                '.e 3.-.& & & & & & & & & & & & 4.5.6.7.}.T T _ 8.9.9.3.[ 0.0.[ a.! ! ! ! ! ! ! ! ! ! ! ! ! ! ! ! ! ! ! ! ! ! ! ! b._ ! K c.& 1.d.e.f.>.g.h.].*.i.> j.{.& & & & k.W 0 5./.$.l.@.m.      ",
"                & C & & & & & & & & & & & & & & Z n.o.J p.q.r.s.t.t.t.t.t.t.t.u.t.t.v.w.t.t.t.t.t.t.t.t.t.t.t.t.t.t.t.t.x.y.z.A.~ B.* C.D.E.Y F.G.H.1.o I.I.*.d |.d I.J.K.L.> M.N.O.! ! P.=.Q.& Q.      ",
"  ! ! ! ! !   R.S.T.& & & & & & & & & & & & & & & & & & & U.V.| W.X.Y.Z.`. +.+t.t.t.! ++t.t.t.t.t.t.t.t.++++@+#+$+%+&+} ^ G.C.@.*+=+-+w ;+    >+,+( o g & & & & & & & & & & & & & & B ! } h '+& )+!+    ",
"  ! ! ! ! !   n.6.n.~+{+{+{+{+{+{+B H ]+K.& & & & & & & & & & & h ,.^+T./+A.(+_+:+<+! q.[+}+|+1+1+2+3+_+4+5+J F.2.i.g c 6+q :./+    #+7+t.t.t.t.8+! 9+0+& & & & & & & & & & & & & & & 0 ! K.& a+).N.    ",
"  ! ! ! ! ! ! a+b & & & & & & & & | b+    ! ! c+d+z ( e+P A v '.~.^+& & & & & & j.j.).)+|.].!.].= j.D.=.)+f+<.' f g+h+w i+j+t.t.t.t.t.t.t.t.t.t.$+! 7 % p k+M.& ~.G.i.& & & & & & & & :.! l+& |.& l.    ",
"  ! ! ! ! ! 7 ,.1.& & & & & & & f ! t.t.t.t.t.t.t.      m+n+o+p+q+S r+=+Q.D E P s+P.P.P.# 7.t+R.f u+V.=++ d.K.* b.L.& & v+t.t.t.t.t.t.t.t.t.t.t.t.3+! @.& & & & & & ].0+/.n.o M.- & & & / ! =.4.& T.    ",
"  ! ! ! ! ! 8 U.I.& & & & & & & R w+t.t.t.t.t.t.t.t.t.t.t.t.t.t.B & & & & & & & & & & & & & & & & & & & & & & & x+,.& & y+u.t.t.t.t.t.t.t.t.t.t.t.z+! V & & & & & & & & & & ,.j./.:.'.i.= A+$.|.C.S.i+  ",
"  ! ! ! ! ! a.d j & & & & & & g B+C+t.t.t.t.t.t.t.t.t.t.t.t.t.t.H.& & & & & & & & & & & & & & & & & & & & & & & , @.& & ,..+t.t.t.t.t.t.t.t.t.t.t.D+! ! S.& & & & & & & & & & & & & @.E+~.|.-+Z k  .B.  ",
"  ! ! ! ! ! 6 T.'.& & & & & & ` ,+F+t.t.t.t.t.t.t.t.t.t.t.t.t.t.i+& & & & & & & & & & & & & & & & & & & & & & & , 2.& & ,.G+t.t.t.t.t.t.t.t.t.t.t.H+p+! s & & & & & & & & & & & & & & & ` '.h+&.O. .0+  ",
"  ! ! ! ! ! 6 (.).& & & & & & D.! ++t.t.t.t.t.t.t.t.t.t.t.t.t.t.7.& & & & & & & & & & & & & & & & & & & & & & & ` I+& & , J+t.t.t.t.t.t.t.t.t.t.t.t.3+! P.& & & & & & & & & & & & & & & & & U ).e.i.h.  ",
"  ! ! ! ! ! ,+B.& & & & & & & @ K+t.t.t.t.t.t.t.t.t.t.t.t.t.t.t.=+& & & & & & & & & & & & & & & & & & & & & & &  .O & & , L+t.t.t.t.t.t.t.t.t.t.t.t.M+! +.& & & & & & & & & & & & & & & & & | E+N+& q   ",
"  ! ! ! ! ! ,+x & & & & & & & O+P+t.t.t.t.t.t.t.t.t.t.t.t.t.t.Q+D & & & & & & & & & & & & & & & & & & & & & & & & i+& & , R+t.t.t.t.t.t.t.t.t.t.t.t.S+! T+& & & & & & & & & & & & & & & & & 0.1.k+& S   ",
"  ! ! ! ! ! ,+x & & & & & & & Q.U+t.t.t.t.t.t.t.t.t.t.t.t.t.t.V+a & & & & & & & & & & & & & & & & & & & & & & & & W+& & & X+t.t.t.t.t.t.t.t.t.t.t.t.Y+! 4 & & & & & & & & & & & & & & & & & Z+g+].& g+  ",
"  ! ! ! ! ! n u & & & & & & & `+ @t.t.t.t.t.t.t.t.t.t.t.t.t.t..@m.& & & & & & & & & & & & & & & & & & & & & & & & +@& & & @@t.t.t.t.t.t.t.t.t.t.t.t.#@! ! & & & & & & & & & & & & & & & & & A+O.@.& R.  ",
"  ! ! ! ! ! e+-+& & & & & & & 3.$@t.t.t.t.t.t.t.t.t.t.t.t.t.t..@1.& & & & & & & & & & & & & & & & & & & & & & & & i+& & & %@t.t.t.t.t.t.t.t.t.t.t.t.v.! ! & & & & & & & & & & & & & & & & & 8.t > & 5.  ",
"  ! ! ! ! 8 &@O.& & & & & & & T+*@t.t.t.t.t.t.t.t.t.t.t.t.t.t..@*+1.)+& & & & & & & & & & & & & & & & & & & & & & i+& & & =@t.t.t.t.t.t.t.t.t.t.t.t.-@! ! > & & & & & & & & & & & & & & & & : H.> & O   ",
"  ! ! ! ! ! A+F.& & & & & & & ! *@t.t.t.t.t.t.t.t.t.t.t.t.t.t.;@r+g t+& & & & & & & & & & & & & & & & & & & & & & i+& & & >@t.t.t.t.t.t.t.t.t.t.t.t.,@a.! j.& & & & & & & & & & & & & & & & o.'@> & )@  ",
"  ! ! ! ! ! +@T.& & & & & & & !@*@t.t.t.t.t.t.t.t.t.t.t.t.t.t..@1.i.` & & & & & & & & & & & & & & & & & & & & & & i+& & & ~@t.t.t.t.t.t.t.t.t.t.t.t.{@! ! > & & & & & & & & & & & & & & & & E H.> & u+  ",
"  ! ! ! ! ! i+c.& & & & & & & l+C+t.t.t.t.t.t.t.t.t.t.t.t.t.t..@m.& & & & & & & & & & & & & & & & & & & & & & & & e+& & & ]@t.t.t.t.t.t.t.t.t.t.t.t.^@! ! & & & & & & & & & & & & & & & & & `+=+j.& 6.  ",
"  ! ! ! ! ! /@(@& & & & & & & _@:@t.t.t.t.t.t.t.t.t.t.t.t.t.t.<@e.& & & & & & & & & & & & & & & & & & & & & & & & c+& & & [@t.t.t.t.t.t.t.t.t.t.t.t.Y.! ! & & & & & & & & & & & & & & & & & z ]+^+& $   ",
"  ! ! ! ! ! }@<.& & & & & & & Q.|@t.t.t.t.t.t.t.t.t.t.t.t.t.t..@l & & & & & & & & & & & & & & & & & & & & & & & & A+& & >.1@t.t.t.t.t.t.t.t.t.t.t.t.2@! 3@& & & & & & & & & & & & & & & & & !@a L.& s+  ",
"  ! ! ! ! ! ,+x & & & & & & & 2.4@t.t.t.t.t.t.t.t.t.t.t.t.t.t.5@6@& & & & & & & & & & & & & & & & & & & & & & & >.7@& & i.8@t.t.t.t.t.t.t.t.t.t.t.t.9@! z & & & & & & & & & & & & & & & & & [.d.j C.:.  ",
"  ! ! ! ! ! ,+x & & & & & & & S.! t.t.t.t.t.t.t.t.t.t.t.t.t.t.t.P & & & & & & & & & & & & & & & & & & & & & & & -.0@& & N.a@t.t.t.t.t.t.t.t.t.t.t.t.M+! (@& & & & & & & & & & & & & & & & & b@r /.& {.  ",
"  ! ! ! ! ! 8 i+#.& & & & & & = 7 c@t.t.t.t.t.t.t.t.t.t.t.t.t.t.D & & & & & & & & & & & & & & & & & & & & & & & Z a & & , .+t.t.t.t.t.t.t.t.t.t.t.++d@! *+& & & & & & & & & & & & & & & & & 3.k+x+g '   ",
"  ! ! ! ! ! }@e@!.& & & & & & Z 0 f@t.t.t.t.t.t.t.t.t.t.t.t.t.t.C & & & & & & & & & & & & & & & & & & & & & & & Z p & & =..+t.t.t.t.t.t.t.t.t.t.t.g@4+! I.& & & & & & & & & & & & & & & j a+x %.6@i.a   ",
"  ! ! ! ! ! a.e ^+& & & & & & >.[ 2@t.t.t.t.t.t.t.t.t.t.t.t.t.t.9+& & & & & & & & & & & & & & & & & & & & & & & @ k+& & , .+t.t.t.t.t.t.t.t.t.t.t.$+! ! &.& & & & & & & & & & & & ;.j ) ~.{.4.i.r & ]+  ",
"  ! ! ! ! ! 8 M.:.& & & & & & & 7.h@t.t.t.t.t.t.t.t.t.t.t.t.t.t.o.& & & & & & & & & & & & & & & & & & & & & & & ] %.& & i@j@t.t.t.t.t.t.t.t.t.t.t.v.! '+& & & & & & & & & & & * k@l@m@& %.a.|.M., ; W+  ",
"  ! ! ! ! ! 5 D.E.& & & & & & & g ! x.t.t.t.t.t.n@o@p@q@r@s@t@u@B+f+u+=+O.Q.F }.D 6@u+D ]+m.f+6+5.P.Y R.H.v@2.x+} * & & w@t.t.t.t.t.t.t.t.t.t.t. +w.! &.& & & & & & &.a ~+^+> g. .& & & x@! i.~.& '+    ",
"  ! ! ! ! ! ! G.u+& & & & & & & & A+w+y@P+z@_ L A@s+k s J.=.& & & & & & & i.{+1.N w r+B@C@D@t $ 0+E@v@{+L.& & & - k )@t F@G@H@t.t.t.t.t.t.t.t.t.D+! 7 I+)@m@e.P.c )+L.& & & & & & & & d.! ~ & e@ .b     ",
"  ! ! ! ! !   k *+b $.k.'.@ @ @ @ ~.S.& & & & & & & & & & & & ].:.*+O J ! !         !               W   ! ! ! x@r+I@I.,.a+J@b K@L@M@f@#+t.t.t.t.N@! 6.+ & & & & & & & & & & & & & & i.! ! g.g n.].I.    ",
"      ! ! !   /+i.L & & & & & & & & & & & & & & & & ` C.f+B y 4         t.t.t.t.t.t.O@#+t.t.t.t.t.t.t.t.t.t.        ! ! } u+*.g 6+)@6+$ P@Q@R@S@! 0@f >.& & & & & & & & & ` Z Z `  .T@! y >.6+& E+      ",
"                 .U@I.& & & & & & & & & & & & %.E+W+8 ! o+3+V@W@X@Y@Y@@+t.t.t.t.t.t.  w+t.t.t.t.t.t.t.t.t.t.t.t.t.t.t.        a.}@Z@f+h  .v@O+q & l@2.e@* v d & & L.{+-+; = -.g g /+! ! G.@.&.& ..      ",
"                )+h.n A@d.F C.& & & & & & & & >.I@> L.d '.J@#.N+v@w x . ^.`@F  #.#+#@#b.##$#%#&#_+3+*#=#-#*#*#*#;#*#;#>#4@4@P+K+! '@T.! ! U@J.T@8.G m.% 6._.q K.&.& |.|.M.& g & ,#'#'#k.-+g.& n..       ",
"                ~.& & %.J.@.b +.t+7@: / )#x+N ..!#U.s ]. .L.; f U.s {.j > k+D.p M.;.;.h & & & & & & & & & & & & %.` ;.= , & p & D.]+& - ` /+*+! y ! Z+=+$ d.+.& ;.& & & !#<.U._.n 5.K.{+& & & ..        ",
"                {+j., & N.& & J@& %.j & E+& ).Z & & & e@> f.~#g+H.{#~#s E H E O._ D + O m ]#Q 9+A+}.b u ^#l+L C _@E 7@7@,#i+<.(.. & d.t <.J ]#F ] b@/@Q.x+& R.& p & & & & m@& =.. & & & & p d.t         ",
"                        /#I@'.1.n._.r =.S & S.M.h %.g g g g  .%.h h h N.>.{.` (#T+'@_#c+x@U [.! ,+! ! ! ! ! ! ! ! ! ! ! ! ! ! ! r+& & 4 ! 8 ! & & /#]+p N & I+N > ` ` h c - h ].)@Z L.k P R.T@          ",
"                                                                                                                                A #                                                                     "};
